<svg version="1.1" id="Layer_1" xmlns="http://www.w3.org/2000/svg" x="0" y="0" viewBox="0 0 256 256" style="enable-background:new 0 0 256 256" xml:space="preserve"><style>.st0{fill:#382b73}.st2{fill:#fff}.st3{fill:#d1d3d4}.st4{fill:#1caee4}.st5{fill:#009add}.st6{fill:#fede3a}.st7{fill:#ef5a9d}.st8{fill:#e43d91}</style><switch><g><circle class="st0" cx="128" cy="128" r="120"/><circle cx="128" cy="128" r="102.5" style="fill:#473080"/><path class="st0" d="m166.223 100.144-7.192 5.762a2.367 2.367 0 0 0-.682.863 2.338 2.338 0 0 0-.213.996c.005.676.294 1.341.809 1.796a2.3 2.3 0 0 0 .936.501c.121.033.248.057.38.071l10.133 1.118 10.133 1.118a2.384 2.384 0 0 0 2.63-2.106l2.237-20.267c.233-2.11-2.201-3.448-3.858-2.121l-7.481 5.994a61.703 61.703 0 0 0-29.428-18.342V63.77a2 2 0 0 0-2-2h-29.25a2 2 0 0 0-2 2v29.25a2 2 0 0 0 2 2h29.25a2 2 0 0 0 2-2v-7.01a51.712 51.712 0 0 1 21.596 14.134zM142.625 174.98h-29.25a2 2 0 0 0-2 2v7.141a51.696 51.696 0 0 1-21.973-14.265l7.192-5.762c1.657-1.327.881-3.995-1.228-4.227l-17.027-1.879-3.24-.357a2.382 2.382 0 0 0-2.629 2.107l-2.237 20.266a2.337 2.337 0 0 0 .937 2.167 2.398 2.398 0 0 0 1.929.431c.343-.074.681-.229.991-.478l5.523-4.425 1.958-1.569a61.708 61.708 0 0 0 29.804 18.442v11.657a2 2 0 0 0 2 2h29.25a2 2 0 0 0 2-2V176.98a2 2 0 0 0-2-2zM199.23 118.375h-29.25a2 2 0 0 0-2 2v29.25a2 2 0 0 0 2 2h6.887a51.703 51.703 0 0 1-14.199 21.786l-5.762-7.192c-1.327-1.656-3.995-.881-4.227 1.228l-1.808 16.38-.345 3.127-.084.759a2.36 2.36 0 0 0 .258 1.369 2.38 2.38 0 0 0 1.848 1.261l20.266 2.236c.132.014.261.019.386.013a2.326 2.326 0 0 0 1.781-.951c.603-.811.7-1.989-.047-2.92l-1.945-2.428-4.048-5.053a61.698 61.698 0 0 0 18.392-29.616h11.895a2 2 0 0 0 2-2v-29.25a1.996 1.996 0 0 0-1.998-1.999zM88.02 149.625v-29.25a2 2 0 0 0-2-2h-7.263a51.703 51.703 0 0 1 14.199-21.786l2.665 3.326 3.097 3.865c.332.414.747.676 1.188.804.22.064.447.094.672.092a2.455 2.455 0 0 0 1.552-.57 2.29 2.29 0 0 0 .622-.827c.098-.22.165-.463.194-.726l2.237-20.267a2.377 2.377 0 0 0-.509-1.751 2.373 2.373 0 0 0-1.598-.878L82.809 77.42c-2.11-.233-3.448 2.201-2.121 3.858l5.994 7.481a61.698 61.698 0 0 0-18.392 29.616H56.77a2 2 0 0 0-2 2v29.25a2 2 0 0 0 2 2h29.25a2 2 0 0 0 2-2z"/><g><path class="st2" d="M170.915 99.07C161.261 84.781 145.218 76.25 128 76.25v-10c20.545 0 39.686 10.176 51.201 27.221l-8.286 5.599z"/><path class="st3" d="M173.04 94.945c-9.654-14.289-25.697-22.82-42.915-22.82v-5.836A62.61 62.61 0 0 0 128 66.25v10c17.218 0 33.261 8.531 42.915 22.82l8.286-5.599a61.992 61.992 0 0 0-1.284-1.822l-4.877 3.296z"/><path class="st2" d="m185.393 82.996-2.236 20.267a2.383 2.383 0 0 1-2.629 2.107l-20.266-2.236c-2.11-.233-2.885-2.9-1.228-4.227l22.503-18.03c1.654-1.328 4.088.01 3.856 2.119z"/><path class="st3" d="m182.277 99.745-20.266-2.236a2.372 2.372 0 0 1-.885-.28l-2.093 1.677c-1.656 1.327-.881 3.994 1.228 4.227l20.266 2.236a2.382 2.382 0 0 0 2.629-2.107l.413-3.746a2.36 2.36 0 0 1-1.292.229z"/><path class="st2" d="M127.625 189.75c-20.545 0-39.686-10.176-51.201-27.221l8.286-5.599c9.654 14.289 25.697 22.82 42.915 22.82v10z"/><path class="st3" d="m79.514 160.44-3.091 2.088c11.516 17.045 30.656 27.221 51.201 27.221v-4.18c-19.082-.498-36.797-9.769-48.11-25.129z"/><path class="st2" d="m70.232 173.004 2.237-20.266a2.382 2.382 0 0 1 2.629-2.107l20.267 2.236c2.11.233 2.885 2.9 1.228 4.227l-22.503 18.03c-1.656 1.328-4.09-.011-3.858-2.12z"/><path class="st3" d="m76.439 168.192 1.899-17.205-3.24-.357a2.382 2.382 0 0 0-2.629 2.107l-2.237 20.266c-.233 2.11 2.201 3.448 3.858 2.121l5.523-4.425c-1.565.574-3.376-.674-3.174-2.507z"/><g><path class="st2" d="m162.341 179.389-5.599-8.286c14.289-9.654 22.82-25.697 22.82-42.915h10c.001 20.544-10.176 39.685-27.221 51.201z"/><path class="st3" d="M186.333 128.188c-.975 19.056-10.693 36.599-26.455 47.555l2.464 3.646c17.045-11.516 27.221-30.656 27.221-51.201h-3.23z"/><path class="st2" d="m172.816 185.58-20.266-2.236a2.383 2.383 0 0 1-2.107-2.629l2.236-20.266c.233-2.11 2.9-2.885 4.227-1.228l18.03 22.503c1.328 1.655-.01 4.089-2.12 3.856z"/><path class="st3" d="m174.937 181.722-1.945-2.428a2.391 2.391 0 0 1-.922.079l-20.266-2.236a2.383 2.383 0 0 1-.932-.309l-.429 3.886a2.382 2.382 0 0 0 2.107 2.629l20.266 2.236c2.11.234 3.448-2.2 2.121-3.857z"/></g><g><path class="st2" d="M76.062 127.813h-10c0-20.545 10.176-39.686 27.221-51.201l5.599 8.286c-14.289 9.653-22.82 25.696-22.82 42.915z"/><path class="st3" d="M93.284 76.611c-.56.378-1.111.766-1.656 1.16l3.379 5.001c-14.289 9.654-22.82 25.697-22.82 42.915h-6.086a62.61 62.61 0 0 0-.039 2.125h10c0-17.218 8.531-33.261 22.82-42.915l-5.598-8.286z"/><path class="st2" d="m82.809 70.42 20.266 2.237a2.382 2.382 0 0 1 2.107 2.629l-2.237 20.267c-.233 2.11-2.9 2.885-4.227 1.228l-18.03-22.503c-1.327-1.657.011-4.091 2.121-3.858z"/><path class="st3" d="m103.075 72.657-2.77-.306-2.037 18.459c-.157 1.427-1.43 2.241-2.647 2.106l3.097 3.865c1.327 1.657 3.995.881 4.227-1.228l2.237-20.267a2.382 2.382 0 0 0-2.107-2.629z"/></g><g><path class="st4" d="M142.625 88.02h-29.25a2 2 0 0 1-2-2V56.77a2 2 0 0 1 2-2h29.25a2 2 0 0 1 2 2v29.25a2 2 0 0 1-2 2z"/><path class="st5" d="M142.625 83.865h-29.25a2 2 0 0 1-2-2v4.155a2 2 0 0 0 2 2h29.25a2 2 0 0 0 2-2v-4.155a2 2 0 0 1-2 2z"/><path class="st6" d="M131.625 67.582h-12.271a2.5 2.5 0 1 1 0-5h12.271a2.5 2.5 0 1 1 0 5zM136.646 78.207h-17.292a2.5 2.5 0 1 1 0-5h17.292a2.5 2.5 0 1 1 0 5z"/><g><path class="st4" d="M142.625 201.23h-29.25a2 2 0 0 1-2-2v-29.25a2 2 0 0 1 2-2h29.25a2 2 0 0 1 2 2v29.25a2 2 0 0 1-2 2z"/><path class="st5" d="M142.625 197.076h-29.25a2 2 0 0 1-2-2v4.154a2 2 0 0 0 2 2h29.25a2 2 0 0 0 2-2v-4.154a2 2 0 0 1-2 2z"/><path class="st6" d="M131.625 180.793h-12.271a2.5 2.5 0 1 1 0-5h12.271a2.5 2.5 0 1 1 0 5zM136.646 191.418h-17.292a2.5 2.5 0 1 1 0-5h17.292a2.5 2.5 0 1 1 0 5z"/></g></g><g><path class="st7" d="M199.23 144.625h-29.25a2 2 0 0 1-2-2v-29.25a2 2 0 0 1 2-2h29.25a2 2 0 0 1 2 2v29.25a2 2 0 0 1-2 2z"/><path class="st8" d="M199.23 140.471h-29.25a2 2 0 0 1-2-2v4.154a2 2 0 0 0 2 2h29.25a2 2 0 0 0 2-2v-4.154a2 2 0 0 1-2 2z"/><path class="st6" d="M188.23 124.188h-12.27a2.5 2.5 0 1 1 0-5h12.271a2.5 2.5 0 1 1-.001 5zM193.251 134.813H175.96a2.5 2.5 0 1 1 0-5h17.292a2.5 2.5 0 1 1-.001 5z"/><g><path class="st7" d="M86.02 144.625H56.77a2 2 0 0 1-2-2v-29.25a2 2 0 0 1 2-2h29.25a2 2 0 0 1 2 2v29.25a2 2 0 0 1-2 2z"/><path class="st8" d="M86.02 140.471H56.77a2 2 0 0 1-2-2v4.154a2 2 0 0 0 2 2h29.25a2 2 0 0 0 2-2v-4.154a2 2 0 0 1-2 2z"/><path class="st6" d="M75.019 124.188H62.748a2.5 2.5 0 1 1 0-5h12.271a2.5 2.5 0 1 1 0 5zM80.04 134.813H62.748a2.5 2.5 0 1 1 0-5H80.04a2.5 2.5 0 1 1 0 5z"/></g></g></g></g></switch></svg>